{"title":"Cars 2 (2011)  TS XviD AC3-Rjaa","uid":6499163,"size":938110736,"categoryP":"video","categoryS":"movies","magnet":"?xt=urn:btih:f6433642ba83b3a6c64772a5db2974819a4bc93f&amp;dn=+Cars+2+%282011%29++TS+XviD+AC3-Rjaa&amp;tr=udp%3A%2F%2Ftracker.openbittorrent.com%3A80&amp;tr=udp%3A%2F%2Fopen.demonii.com%3A1337&amp;tr=udp%3A%2F%2Ftracker.coppersurfer.tk%3A6969&amp;tr=udp%3A%2F%2Fexodus.desync.com%3A6969","seeders":1,"leechers":0,"uploader":"rjaa","files":-1,"time":1309183418,"description":"#######                         ######        #    #       #    \n    #    ######   ##   #    #    #     #       #   # #     # #   \n    #    #       #  #  ##  ##    #     #       #  #   #   #   #  \n    #    #####  #    # # ## #    ######        # #     # #     # \n    #    #      ###### #    #    #   #   #     # ####### ####### \n    #    #      #    # #    #    #    #  #     # #     # #     # \n    #    ###### #    # #    #    #     #  #####  #     # #     #\n\n\n\n\n\nWell where to start first off thanks Relizlab for one nice video and CARS.2.iPhoneCAM-FU for some pretty good audio THANKS. Ok on my part i used the Russain video and split it up into a whole bunch of splits synced each peice and joined then and it came out damn good bout as good as it gets i think. Now my encode i did alot to just because well cuz i can. \n\n\n\nI adjusted chroma saturation and the regular stuff but i did indeed use a few custom filters i had made from prior encodes so it worked i noticed there is a red overlay in most of the encodes ive saw so i went ahead and corrected it the way i feel it should look.\n\n\nFormat : MPEG-4\n\nFormat profile : Base Media / Version 2\n\nCodec ID : mp42\n\nFile size : 883 MiB\n\nDuration : 1h 34mn\n\nOverall bit rate : 1 306 Kbps\n\nWriting application : TMPGEnc Video Mastering Works 5 Version. 5.0.5.32\n\n\n\nVideo\n\nID : 2\n\nFormat : AVC\n\nFormat/Info : Advanced Video Codec\n\nFormat profile : &lt;a class=&quot;__cf_email__&quot; href=&quot;/cdn-cgi/l/email-protection&quot; data-cfemail=&quot;6a22030d022a2659445a&quot;&gt;[email&amp;#160;protected]&lt;/a&gt;&lt;script cf-hash='f9e31' type=&quot;text/javascript&quot;&gt;\n/* &lt;![CDATA[ */!function(){try{var t=&quot;currentScript&quot;in document?document.currentScript:function(){for(var t=document.getElementsByTagName(&quot;script&quot;),e=t.length;e--;)if(t[e].getAttribute(&quot;cf-hash&quot;))return t[e]}();if(t&amp;&amp;t.previousSibling){var e,r,n,i,c=t.previousSibling,a=c.getAttribute(&quot;data-cfemail&quot;);if(a){for(e=&quot;&quot;,r=parseInt(a.substr(0,2),16),n=2;a.length-n;n+=2)i=parseInt(a.substr(n,2),16)^r,e+=String.fromCharCode(i);e=document.createTextNode(e),c.parentNode.replaceChild(e,c)}}}catch(u){}}();/* ]]&gt; */&lt;/script&gt;\n\nFormat settings, CABAC : Yes\n\nFormat settings, ReFrames : 3 frames\n\nCodec ID : avc1\n\nCodec ID/Info : Advanced Video Coding\n\nDuration : 1h 34mn\n\nBit rate mode : Constant\n\nBit rate : 1 201 Kbps / 1 201 Kbps\n\nWidth : 720 pixels\n\nHeight : 304 pixels\n\nDisplay aspect ratio : 2.35:1\n\nFrame rate mode : Constant\n\nFrame rate : 25.000 fps\n\nStandard : NTSC\n\nColor space : YUV\n\nChroma subsampling : 4:2:0\n\nBit depth : 8 bits\n\nScan type : Progressive\n\nBits/(Pixel*Frame) : 0.219\n\nStream size : 795 MiB (90%)\n\nWriting library : x264 core 112\n\n\nColor primaries : BT.470-6 System B, BT.470-6 System G, BT.601-6 625, BT.1358 625, BT.1700 625 PAL, BT.1700 625 SECAM\n\nTransfer characteristics : BT.470-6 System B, BT.470-6 System G\n\nMatrix coefficients : BT.470-6 System B, BT.470-6 System G, BT.601-6 625, BT.1358 625, BT.1700 625 PAL, BT.1700 625 SECAM, IEC 61966-2-4 601\n\n\n\nAudio\n\nID : 1\n\nFormat : AAC\n\nFormat/Info : Advanced Audio Codec\n\nFormat profile : LC\n\nCodec ID : 40\n\nDuration : 1h 34mn\n\nBit rate mode : Variable\n\nBit rate : 128 Kbps\n\nMaximum bit rate : 529.2 Kbps\n\nChannel(s) : 2 channels\n\nChannel positions : Front: L R\n\nSampling rate : 44.1 KHz\n\nCompression mode : Lossy\n\nStream size : 86.5 MiB (10%)\n\n\nSAMPLE INCLUDED \n\n\nScreenshots:\n &lt;a href=&quot;\nhttp://www.shotpix.com/images/16041052699094187814.png&quot; rel=&quot;nofollow&quot; target=&quot;_NEW&quot;&gt;\nhttp://www.shotpix.com/images/16041052699094187814.png&lt;/a&gt;\n &lt;a href=&quot;\nhttp://www.shotpix.com/images/60301285573497243376.png&quot; rel=&quot;nofollow&quot; target=&quot;_NEW&quot;&gt;\nhttp://www.shotpix.com/images/60301285573497243376.png&lt;/a&gt;\n &lt;a href=&quot;\nhttp://www.shotpix.com/images/70610912199375036792.png&quot; rel=&quot;nofollow&quot; target=&quot;_NEW&quot;&gt;\nhttp://www.shotpix.com/images/70610912199375036792.png&lt;/a&gt;\n &lt;a href=&quot;\nhttp://www.shotpix.com/images/19421888618245007501.png&quot; rel=&quot;nofollow&quot; target=&quot;_NEW&quot;&gt;\nhttp://www.shotpix.com/images/19421888618245007501.png&lt;/a&gt;\n\n\n","torrent":{"xt":"urn:btih:f6433642ba83b3a6c64772a5db2974819a4bc93f","amp;dn":"+Cars+2+%282011%29++TS+XviD+AC3-Rjaa","amp;tr":["udp%3A%2F%2Ftracker.openbittorrent.com%3A80","udp%3A%2F%2Fopen.demonii.com%3A1337","udp%3A%2F%2Ftracker.coppersurfer.tk%3A6969","udp%3A%2F%2Fexodus.desync.com%3A6969"],"infoHash":"f6433642ba83b3a6c64772a5db2974819a4bc93f","infoHashBuffer":{"type":"Buffer","data":[246,67,54,66,186,131,179,166,198,71,114,165,219,41,116,129,154,75,201,63]},"announce":[],"urlList":[]}}